<svg width="61" height="60" viewBox="0 0 61 60" fill="none" xmlns="http://www.w3.org/2000/svg">
<path d="M48.5761 36.2695C48.5761 36.0417 48.5622 35.8102 48.534 35.562L47.7233 28.4358C47.6727 27.9916 47.297 27.6562 46.85 27.6562H37.9975C37.5506 27.6562 37.1748 27.9916 37.1243 28.4358L36.3133 35.5627C36.2852 35.8107 36.2715 36.042 36.2715 36.2695C36.2715 39.662 39.0315 42.4219 42.4238 42.4219C45.8162 42.4219 48.5761 39.662 48.5761 36.2695ZM38.0292 36.2695C38.0292 36.109 38.0393 35.9427 38.0599 35.7614L38.7821 29.4141H46.0653L46.7874 35.7609C46.8082 35.9427 46.8182 36.109 46.8182 36.2695C46.8182 38.6927 44.8469 40.6641 42.4237 40.6641C40.0005 40.6641 38.0292 38.6927 38.0292 36.2695Z" fill="white"/>
<path d="M51.2129 58.2422H49.4551C48.0612 58.2422 47.3991 57.5801 46.561 56.7418C45.7965 55.9773 44.8704 55.0561 43.3027 54.7986V45.8958C48.2231 45.45 52.0918 41.3041 52.0918 36.2695C52.0918 35.9118 52.07 35.5399 52.0271 35.1645L50.3284 20.2327C50.2777 19.7885 49.902 19.4531 49.4551 19.4531H35.3926C34.9456 19.4531 34.5698 19.7885 34.5193 20.2327L32.8204 35.1642C32.7777 35.5402 32.7559 35.912 32.7559 36.2695C32.7559 41.304 36.6246 45.45 41.5449 45.8958V54.7986C39.9774 55.0561 39.0513 55.9773 38.2866 56.7418C37.4485 57.5801 36.7864 58.2422 35.3926 58.2422H33.6348C33.1493 58.2422 32.7559 58.6357 32.7559 59.1211C32.7559 59.6065 33.1493 60 33.6348 60H51.2129C51.6984 60 52.0918 59.6065 52.0918 59.1211C52.0918 58.6357 51.6984 58.2422 51.2129 58.2422ZM34.5137 36.2695C34.5137 35.9783 34.5316 35.6735 34.567 35.3632L36.1771 21.2109H48.6704L50.2804 35.3632C50.3159 35.6733 50.3339 35.9781 50.3339 36.2695C50.3339 40.6313 46.7854 44.1797 42.4237 44.1797C38.062 44.1797 34.5137 40.6313 34.5137 36.2695ZM39.27 58.2422C39.3587 58.1552 39.4456 58.0689 39.5298 57.9847C40.3679 57.1465 41.03 56.4844 42.4238 56.4844C43.8177 56.4844 44.4798 57.1465 45.3179 57.9847C45.402 58.0689 45.489 58.1552 45.5777 58.2422H39.27Z" fill="white"/>
<path d="M23.9668 17.9861V0.878906C23.9668 0.393516 23.5734 0 23.0879 0H16.0566C15.5711 0 15.1777 0.393516 15.1777 0.878906V17.9861C10.9471 19.7488 8.14648 23.9114 8.14648 28.5352V55.6055C8.14648 58.0287 10.1178 60 12.541 60H26.6035C29.0267 60 30.998 58.0287 30.998 55.6055V28.5352C30.998 23.9114 28.1974 19.7488 23.9668 17.9861ZM22.209 1.75781V14.1797H16.9355V1.75781H22.209ZM25.7246 29.4141H13.4199V28.5352C13.4199 25.1427 16.1799 22.3828 19.5723 22.3828C22.9646 22.3828 25.7246 25.1427 25.7246 28.5352V29.4141ZM29.2402 31.1719V49.4531H9.9043V31.1719H29.2402ZM26.6035 58.2422H12.541C11.0872 58.2422 9.9043 57.0594 9.9043 55.6055V51.2109H25.7246V54.7266H13.4199V53.8477C13.4199 53.3623 13.0265 52.9688 12.541 52.9688C12.0555 52.9688 11.6621 53.3623 11.6621 53.8477V55.6055C11.6621 56.0909 12.0555 56.4844 12.541 56.4844H26.6035C27.089 56.4844 27.4824 56.0909 27.4824 55.6055V51.2109H29.2402V55.6055C29.2402 57.0594 28.0573 58.2422 26.6035 58.2422ZM29.2402 29.4141H27.4824V28.5352C27.4824 24.1734 23.934 20.625 19.5723 20.625C15.2105 20.625 11.6621 24.1734 11.6621 28.5352V29.4141H9.9043V28.5352C9.9043 24.4445 12.4945 20.7806 16.3495 19.418C16.7007 19.2937 16.9355 18.9618 16.9355 18.5893V15.9375H22.209V18.5892C22.209 18.9618 22.4438 19.2938 22.795 19.4179C26.65 20.7805 29.2402 24.4445 29.2402 28.535V29.4141Z" fill="white"/>
</svg>
