<svg width="60" height="60" viewBox="0 0 60 60" fill="none" xmlns="http://www.w3.org/2000/svg">
<path d="M57.5655 28.3452C57.241 27.8668 56.8966 27.4617 56.564 27.1244C57.0323 26.8474 57.5687 26.4803 58.1781 25.996C58.6243 25.6412 58.751 25.0095 58.476 24.5055C56.1457 20.2309 53.4137 18.0263 50.3563 17.9526C48.9541 17.9192 47.5518 18.3408 46.1838 19.2055C45.6393 16.2094 43.0493 13.9325 39.9442 13.9325C37.7995 13.9325 35.9014 15.0197 34.752 16.6791C33.8217 15.336 32.401 14.3692 30.7557 14.0488C31.0631 10.1184 33.0708 6.50119 36.1678 4.18354C35.7946 5.67219 35.828 7.26474 36.3107 8.7923C37.2361 11.7211 39.9153 13.5919 42.7933 13.5915C43.4802 13.5915 44.1793 13.4848 44.8672 13.2605C47.8461 12.2901 49.4918 9.03903 48.5362 6.01413C48.1472 4.78184 47.3089 3.7775 46.1757 3.18607C45.043 2.59464 43.7507 2.48615 42.5377 2.88166C41.5087 3.21674 40.6694 3.93909 40.1754 4.9155C39.6809 5.89145 39.5908 7.00473 39.9212 8.04981C40.3926 9.54303 41.7584 10.4966 43.2256 10.4961C43.5753 10.4961 43.9319 10.4421 44.2826 10.3276C44.8893 10.1299 45.2233 9.47025 45.0285 8.85364C44.8338 8.23749 44.1848 7.89829 43.5776 8.09604C43.2824 8.19217 42.9682 8.16562 42.6928 8.02188C42.4169 7.87815 42.2132 7.6337 42.1181 7.33387C41.9766 6.8848 42.0153 6.40644 42.2276 5.98713C42.4399 5.56782 42.8005 5.25745 43.2427 5.11326C43.8688 4.90909 44.5354 4.96494 45.1205 5.27027C45.7051 5.5756 46.1378 6.09424 46.3389 6.73008C46.9059 8.52451 45.9296 10.4531 44.1627 11.0289C41.8017 11.798 39.2658 10.4737 38.5081 8.07636C37.8293 5.92762 38.3837 3.59897 39.955 2.00001C39.9545 1.99955 39.9541 1.99909 39.9536 1.99863C40.2894 1.65577 40.3944 1.12339 40.1763 0.663338C39.8995 0.0801475 39.2099 -0.164298 38.6356 0.116311L37.2591 0.790139C35.3925 1.70383 33.7365 2.97733 32.3717 4.53327L31.7019 4.34788C28.1545 3.36689 24.361 4.21329 21.5502 6.55521C21.3027 5.00889 20.6537 3.07758 19.0274 1.69468C16.8016 -0.19863 13.4386 -0.507163 9.03304 0.778237C8.48809 0.937081 8.13741 1.47449 8.20593 2.04624C8.30013 2.82627 8.42364 3.4708 8.56201 4.00318C8.56111 4.00318 8.56021 4.00318 8.55931 4.00318C8.08963 4.00318 7.56542 4.04209 7.00379 4.14692C5.06379 4.50901 2.30479 5.75321 0.177277 9.62726C-0.0981279 10.1294 0.025376 10.7602 0.468908 11.1168C2.09654 12.4256 3.65071 13.0985 4.97995 13.4212C4.74692 13.6753 4.51884 13.9563 4.30113 14.2667C2.36293 17.0316 2.04651 20.8443 3.36088 25.5995C3.46951 25.9932 3.77241 26.3008 4.16005 26.4112C5.41041 26.7678 6.59407 27.0049 7.71011 27.1253C8.15229 30.0279 10.5088 32.2952 13.4233 32.5548C13.042 33.382 12.8279 34.3044 12.8279 35.2762C12.8279 38.6444 15.3854 41.4153 18.6312 41.6963C18.2494 42.5244 18.0348 43.4468 18.0348 44.4196C18.0348 47.7814 20.5834 50.549 23.8206 50.8383C23.4411 51.6641 23.2274 52.5842 23.2274 53.5547C23.2274 57.1088 26.0748 60 29.5739 60C33.0735 60 35.9204 57.1088 35.9204 53.5547C35.9204 52.5842 35.7072 51.6641 35.3272 50.8383C38.5649 50.5486 41.1129 47.7814 41.1129 44.4196C41.1129 44.3161 41.1102 44.2136 41.1053 44.111C41.972 44.8215 42.9628 45.4962 44.0743 46.1302C44.2501 46.23 44.4448 46.2804 44.6396 46.2804C44.8343 46.2804 45.0294 46.23 45.2048 46.1302C49.4449 43.7114 51.8758 40.7881 52.4307 37.4414C52.4929 37.0656 52.5271 36.7031 52.5393 36.3561C53.704 37.0825 55.2712 37.7225 57.3334 37.966C57.8977 38.0333 58.4224 37.6749 58.5766 37.1224C59.7697 32.8551 58.6856 29.9941 57.5655 28.3452ZM25.2837 22.712C25.3175 22.5234 25.3423 22.3407 25.3635 22.1608C27.1097 22.6131 28.4056 24.2235 28.4056 26.136C28.4056 28.3974 26.5936 30.2376 24.3669 30.2376C23.1521 30.2376 22.0217 29.6869 21.2626 28.7609C24.0086 26.76 24.9745 24.4226 25.2837 22.712ZM34.752 22.034C36.9787 22.034 38.7907 23.8742 38.7907 26.1356C38.7907 28.3974 36.9787 30.2371 34.752 30.2371C32.5249 30.2371 30.7134 28.3974 30.7134 26.1356C30.7134 23.8742 32.5249 22.034 34.752 22.034ZM29.5595 31.1746C31.7861 31.1746 33.5981 33.0149 33.5981 35.2762C33.5981 37.538 31.7861 39.3778 29.5595 39.3778C27.3323 39.3778 25.5208 37.538 25.5208 35.2762C25.5208 33.0149 27.3323 31.1746 29.5595 31.1746ZM39.9446 39.3778C37.7175 39.3778 35.9059 37.538 35.9059 35.2762C35.9059 33.0149 37.7175 31.1746 39.9446 31.1746C42.1713 31.1746 43.9833 33.0149 43.9833 35.2762C43.9833 37.538 42.1713 39.3778 39.9446 39.3778ZM41.0985 26.1356C41.0985 23.8742 42.91 22.034 45.1372 22.034C47.3638 22.034 49.1758 23.8742 49.1758 26.1356C49.1758 28.3974 47.3638 30.2371 45.1372 30.2371C42.91 30.2371 41.0985 28.3974 41.0985 26.1356ZM39.9446 16.2763C41.9806 16.2763 43.6682 17.8144 43.9432 19.8065C42.297 20.1265 40.8749 21.0938 39.9446 22.4369C39.0138 21.0938 37.5922 20.1265 35.9461 19.8065C36.2206 17.8144 37.9086 16.2763 39.9446 16.2763ZM33.558 19.8065C31.9119 20.1261 30.4898 21.0933 29.5595 22.4369C29.216 21.9416 28.8067 21.4971 28.3434 21.1176C28.4601 20.9876 28.5503 20.8296 28.6007 20.6507C29.0542 19.0485 29.3048 17.5832 29.3557 16.257C29.422 16.269 29.4901 16.2763 29.5595 16.2763C31.595 16.2763 33.2831 17.8144 33.558 19.8065ZM30.868 6.55063C30.8463 6.58497 30.8238 6.61838 30.8022 6.65271C29.7614 8.33545 29.0483 10.1894 28.6855 12.1216C28.4285 11.5284 28.1 10.9873 27.6983 10.5007C26.4885 9.03308 24.8523 8.34918 23.4343 8.03836C25.5591 6.47236 28.2843 5.90976 30.868 6.55063ZM9.00329 13.4578C9.60819 13.2733 9.95481 12.6293 9.78037 12.0127C9.60639 11.3961 8.97625 11.0363 8.36729 11.2052C8.08332 11.2839 5.69664 11.8584 2.72578 9.88407C5.83366 5.18604 9.91334 6.49479 10.0882 6.55384C10.617 6.74106 11.2011 6.51584 11.4747 6.02009C11.7325 5.55271 11.6438 4.97135 11.2696 4.60468C11.2182 4.5351 10.9018 4.06681 10.6517 2.76859C13.7695 2.01466 16.0822 2.25407 17.5363 3.48362C19.2609 4.94114 19.3979 7.51011 19.3835 8.48194L18.1886 9.69547L12.456 9.32788C11.8218 9.28668 11.2719 9.77741 11.2318 10.4233C11.1917 11.0692 11.6749 11.6259 12.3109 11.6666L16.0137 11.9042L12.4542 15.5191C12.0034 15.9764 12.0034 16.7185 12.4542 17.1762C12.6796 17.4051 12.9748 17.5196 13.27 17.5196C13.5653 17.5196 13.8605 17.4051 14.0859 17.1762L17.9983 13.2033L18.2278 16.8961C18.2665 17.5168 18.7741 17.9943 19.3785 17.9943C19.4029 17.9943 19.4276 17.9933 19.4524 17.992C20.0884 17.9512 20.5712 17.3941 20.5311 16.7487L20.1736 10.9941L21.0156 10.139C21.9753 10.1244 24.503 10.2645 25.9373 12.015C27.1475 13.4922 27.3833 15.8409 26.6413 19.0068C25.3635 18.7532 24.9024 18.4319 24.8334 18.3792C24.4724 17.9988 23.8986 17.9055 23.4384 18.1673C22.9502 18.4452 22.7271 19.0348 22.911 19.5717C22.9718 19.7562 24.2605 23.8994 19.635 27.0561C17.6905 24.039 18.2562 21.6152 18.3337 21.3268C18.5005 20.7083 18.1462 20.0684 17.539 19.8917C17.4327 19.8606 17.3258 19.8459 17.2204 19.8459C16.7236 19.8459 16.2657 20.1741 16.1156 20.6809C15.9326 21.2989 14.1075 26.5361 5.41537 24.3251C3.23783 15.4972 8.39479 13.6437 9.00329 13.4578ZM10.0815 27.199C12.1116 27.09 13.8632 26.5087 15.3191 25.4563C15.6247 25.2352 15.9015 25.0035 16.1516 24.7669C16.3869 25.7662 16.812 26.89 17.5386 28.077C16.8386 29.4004 15.4818 30.2371 13.9818 30.2371C12.117 30.2371 10.5439 28.9467 10.0815 27.199ZM15.1357 35.2762C15.1357 33.0149 16.9472 31.1746 19.1743 31.1746C21.401 31.1746 23.213 33.0149 23.213 35.2762C23.213 37.538 21.401 39.3778 19.1743 39.3778C16.9472 39.3778 15.1357 37.538 15.1357 35.2762ZM20.3427 44.4196C20.3427 42.1578 22.1546 40.318 24.3813 40.318C26.6084 40.318 28.42 42.1578 28.42 44.4196C28.42 46.6809 26.6084 48.5211 24.3813 48.5211C22.1546 48.5211 20.3427 46.6809 20.3427 44.4196ZM29.5739 57.6563C27.3472 57.6563 25.5352 55.816 25.5352 53.5547C25.5352 51.2929 27.3472 49.4531 29.5739 49.4531C31.801 49.4531 33.6126 51.2929 33.6126 53.5547C33.6126 55.816 31.801 57.6563 29.5739 57.6563ZM34.7665 48.5211C32.5398 48.5211 30.7278 46.6809 30.7278 44.4196C30.7278 42.1578 32.5398 40.318 34.7665 40.318C36.9936 40.318 38.8051 42.1578 38.8051 44.4196C38.8051 46.6809 36.9936 48.5211 34.7665 48.5211ZM56.596 35.4735C53.1203 34.7365 51.833 32.6166 51.6869 32.357C51.3741 31.7995 50.6777 31.6017 50.1256 31.9126C49.5729 32.2234 49.3692 32.9279 49.6685 33.4928C49.9696 34.0613 52.3261 39.0747 44.6396 43.7535C43.4636 43.0376 42.4647 42.2786 41.6507 41.483C44.3236 40.724 46.2911 38.2302 46.2911 35.2762C46.2911 34.3039 46.0765 33.382 45.6952 32.5548C48.9342 32.2664 51.4836 29.4983 51.4836 26.1356C51.4836 23.8193 50.2734 21.785 48.4623 20.6488C49.0834 20.3998 49.6992 20.2808 50.3018 20.2954C52.2878 20.3435 54.1836 21.8408 55.946 24.7504C54.8656 25.4888 54.3161 25.5927 54.2305 25.605C53.7117 25.5954 53.2397 25.941 53.0964 26.4569C52.945 27.004 53.1978 27.5812 53.7018 27.8284C53.873 27.9158 57.6692 29.9199 56.596 35.4735Z" fill="white"/>
<path d="M10.874 20.4965C11.0886 20.2786 11.2121 19.976 11.2121 19.668C11.2121 19.3585 11.0886 19.0573 10.874 18.8385C10.6595 18.6206 10.3616 18.4961 10.0582 18.4961C9.75485 18.4961 9.45691 18.6206 9.24235 18.8385C9.0278 19.0573 8.9043 19.3585 8.9043 19.668C8.9043 19.976 9.0278 20.2786 9.24235 20.4965C9.45691 20.7144 9.75485 20.8398 10.0582 20.8398C10.3616 20.8398 10.6595 20.7144 10.874 20.4965Z" fill="white"/>
</svg>
