<svg width="60" height="60" viewBox="0 0 60 60" fill="none" xmlns="http://www.w3.org/2000/svg">
<path d="M48.7909 32.8076L52.7441 28.8867L50.8663 23.6291L52.7441 18.3715L48.7909 14.4506L48.2093 8.89488L42.962 7.09195L40.0522 2.33484L34.5449 3.00469L29.872 0L25.1992 3.00469L19.692 2.33484L16.7823 7.09184L11.5349 8.89477L10.9532 14.4506L7 18.3715L8.87772 23.6291L7 28.8867L10.9532 32.8075L11.5348 38.3634L14.4482 39.3645L9.45477 55.0888L18.0032 54.6151L24.6914 60L28.9301 46.6525L29.872 47.2582L30.814 46.6525L35.0527 60L41.7407 54.6151L50.2892 55.0888L45.2958 39.3645L48.2091 38.3634L48.7909 32.8076ZM22.9102 54.0616L19.1424 51.0281L14.3265 51.2948L17.492 41.3269L19.6918 44.9234L25.1991 44.2535L25.8848 44.6945L22.9102 54.0616ZM40.6017 51.0281L36.8339 54.0616L33.8592 44.6945L34.5449 44.2535L40.0521 44.9234L42.252 41.3269L45.4174 51.2948L40.6017 51.0281ZM44.9698 35.7587L40.6468 37.2441L38.2514 41.16L33.721 40.609L29.872 43.084L26.0231 40.6091L21.4925 41.1601L19.0972 37.2441L14.7741 35.7587L14.2952 31.1845L11.0431 27.9591L12.5895 23.6291L11.0431 19.2991L14.2952 16.0736L14.7741 11.4994L19.0972 10.014L21.4925 6.09809L26.023 6.6491L29.872 4.17434L33.721 6.64922L38.2516 6.0982L40.6469 10.0143L44.97 11.4996L45.4488 16.0738L48.701 19.2993L47.1545 23.6292L48.701 27.9592L45.4488 31.1848L44.9698 35.7587Z" fill="white"/>
<path d="M29.8723 9.93652C22.3782 9.93652 16.2812 16.079 16.2812 23.6293C16.2812 31.1796 22.3782 37.3218 29.8723 37.3218C37.3664 37.3218 43.4633 31.1793 43.4633 23.6292C43.4633 16.079 37.3664 9.93652 29.8723 9.93652ZM29.8723 33.8032C24.304 33.8032 19.7738 29.2391 19.7738 23.6292C19.7738 18.0192 24.304 13.4552 29.8723 13.4552C35.4405 13.4552 39.9708 18.0193 39.9708 23.6292C39.9708 29.2392 35.4405 33.8032 29.8723 33.8032Z" fill="white"/>
</svg>
